<svg xmlns="http://www.w3.org/2000/svg" xmlns:xlink="http://www.w3.org/1999/xlink" width="500" zoomAndPan="magnify" viewBox="0 0 375 374.999991" height="500" preserveAspectRatio="xMidYMid meet" version="1.0"><defs><clipPath id="id1"><path d="M 139 158 L 352 158 L 352 371.335938 L 139 371.335938 Z M 139 158 " clip-rule="nonzero"/></clipPath><clipPath id="id2"><path d="M 158 158 L 371.335938 158 L 371.335938 371.335938 L 158 371.335938 Z M 158 158 " clip-rule="nonzero"/></clipPath><clipPath id="id3"><path d="M 81 3.835938 L 294 3.835938 L 294 217 L 81 217 Z M 81 3.835938 " clip-rule="nonzero"/></clipPath><clipPath id="id4"><path d="M 100 3.835938 L 314 3.835938 L 314 217 L 100 217 Z M 100 3.835938 " clip-rule="nonzero"/></clipPath><clipPath id="id5"><path d="M 3.835938 158 L 217 158 L 217 371.335938 L 3.835938 371.335938 Z M 3.835938 158 " clip-rule="nonzero"/></clipPath><clipPath id="id6"><path d="M 23 158 L 236 158 L 236 371.335938 L 23 371.335938 Z M 23 158 " clip-rule="nonzero"/></clipPath></defs><path fill="#c2c2c2" d="M 348.769531 264.957031 C 348.769531 321.929688 302.585938 368.113281 245.613281 368.113281 C 188.640625 368.113281 142.457031 321.929688 142.457031 264.957031 C 142.457031 207.984375 188.640625 161.796875 245.613281 161.796875 C 302.585938 161.796875 348.769531 207.984375 348.769531 264.957031 Z M 348.769531 264.957031 " fill-opacity="1" fill-rule="nonzero"/><g clip-path="url(#id1)"><path fill="#212a41" d="M 245.613281 371.335938 C 186.953125 371.335938 139.230469 323.617188 139.230469 264.957031 C 139.230469 206.296875 186.953125 158.574219 245.613281 158.574219 C 304.273438 158.574219 351.996094 206.296875 351.996094 264.957031 C 351.996094 323.617188 304.273438 371.335938 245.613281 371.335938 Z M 245.613281 165.019531 C 190.507812 165.019531 145.679688 209.851562 145.679688 264.957031 C 145.679688 320.058594 190.507812 364.890625 245.613281 364.890625 C 300.71875 364.890625 345.546875 320.058594 345.546875 264.957031 C 345.546875 209.851562 300.71875 165.019531 245.613281 165.019531 Z M 245.613281 165.019531 " fill-opacity="1" fill-rule="nonzero"/></g><path fill="#e0e0e0" d="M 368.113281 264.957031 C 368.113281 321.929688 321.929688 368.113281 264.957031 368.113281 C 207.984375 368.113281 161.796875 321.929688 161.796875 264.957031 C 161.796875 207.984375 207.984375 161.796875 264.957031 161.796875 C 321.929688 161.796875 368.113281 207.984375 368.113281 264.957031 Z M 368.113281 264.957031 " fill-opacity="1" fill-rule="nonzero"/><g clip-path="url(#id2)"><path fill="#212a41" d="M 264.957031 371.335938 C 206.296875 371.335938 158.574219 323.617188 158.574219 264.957031 C 158.574219 206.296875 206.296875 158.574219 264.957031 158.574219 C 323.617188 158.574219 371.335938 206.296875 371.335938 264.957031 C 371.335938 323.617188 323.617188 371.335938 264.957031 371.335938 Z M 264.957031 165.019531 C 209.851562 165.019531 165.019531 209.851562 165.019531 264.957031 C 165.019531 320.058594 209.851562 364.890625 264.957031 364.890625 C 320.058594 364.890625 364.890625 320.058594 364.890625 264.957031 C 364.890625 209.851562 320.058594 165.019531 264.957031 165.019531 Z M 264.957031 165.019531 " fill-opacity="1" fill-rule="nonzero"/></g><path fill="#6c696f" d="M 342.324219 264.957031 C 342.324219 307.6875 307.6875 342.324219 264.957031 342.324219 C 222.222656 342.324219 187.585938 307.6875 187.585938 264.957031 C 187.585938 222.222656 222.222656 187.585938 264.957031 187.585938 C 307.6875 187.585938 342.324219 222.222656 342.324219 264.957031 Z M 342.324219 264.957031 " fill-opacity="1" fill-rule="nonzero"/><path fill="#212a41" d="M 264.957031 345.546875 C 220.511719 345.546875 184.363281 309.398438 184.363281 264.957031 C 184.363281 220.511719 220.511719 184.363281 264.957031 184.363281 C 309.398438 184.363281 345.546875 220.511719 345.546875 264.957031 C 345.546875 309.398438 309.398438 345.546875 264.957031 345.546875 Z M 264.957031 190.808594 C 224.070312 190.808594 190.808594 224.070312 190.808594 264.957031 C 190.808594 305.839844 224.070312 339.101562 264.957031 339.101562 C 305.839844 339.101562 339.101562 305.839844 339.101562 264.957031 C 339.101562 224.070312 305.839844 190.808594 264.957031 190.808594 Z M 264.957031 190.808594 " fill-opacity="1" fill-rule="nonzero"/><path fill="#4e4b51" d="M 264.957031 332.652344 C 263.175781 332.652344 261.730469 331.207031 261.730469 329.429688 C 261.730469 327.648438 263.175781 326.207031 264.957031 326.207031 C 298.726562 326.207031 326.207031 298.726562 326.207031 264.957031 C 326.207031 263.175781 327.648438 261.730469 329.429688 261.730469 C 331.207031 261.730469 332.652344 263.175781 332.652344 264.957031 C 332.652344 302.285156 302.285156 332.652344 264.957031 332.652344 Z M 264.957031 332.652344 " fill-opacity="1" fill-rule="nonzero"/><path fill="#212a41" d="M 264.957031 313.308594 C 263.96875 313.308594 263.027344 312.855469 262.414062 312.082031 L 226.957031 266.949219 C 226.039062 265.78125 226.039062 264.128906 226.957031 262.96875 L 262.414062 217.839844 C 263.632812 216.277344 266.269531 216.277344 267.492188 217.839844 L 302.949219 262.96875 C 303.867188 264.136719 303.867188 265.785156 302.949219 266.949219 L 267.492188 312.082031 C 266.882812 312.855469 265.941406 313.308594 264.957031 313.308594 Z M 233.59375 264.957031 L 264.957031 304.863281 L 296.316406 264.957031 L 264.957031 225.046875 Z M 233.59375 264.957031 " fill-opacity="1" fill-rule="nonzero"/><path fill="#212a41" d="M 264.957031 287.519531 C 264.425781 287.519531 263.894531 287.386719 263.414062 287.121094 L 227.953125 267.78125 C 226.917969 267.226562 226.269531 266.132812 226.269531 264.957031 C 226.269531 263.777344 226.917969 262.683594 227.953125 262.128906 L 263.414062 242.789062 C 264.367188 242.257812 265.542969 242.257812 266.503906 242.789062 L 301.964844 262.128906 C 302.992188 262.683594 303.640625 263.777344 303.640625 264.957031 C 303.640625 266.132812 302.992188 267.226562 301.957031 267.78125 L 266.496094 287.121094 C 266.015625 287.386719 265.484375 287.519531 264.957031 287.519531 Z M 236.226562 264.957031 L 264.957031 280.628906 L 293.683594 264.957031 L 264.957031 249.28125 Z M 236.226562 264.957031 " fill-opacity="1" fill-rule="nonzero"/><path fill="#212a41" d="M 264.957031 313.308594 C 263.175781 313.308594 261.730469 311.867188 261.730469 310.085938 L 261.730469 219.824219 C 261.730469 218.042969 263.175781 216.601562 264.957031 216.601562 C 266.734375 216.601562 268.179688 218.042969 268.179688 219.824219 L 268.179688 310.085938 C 268.179688 311.867188 266.734375 313.308594 264.957031 313.308594 Z M 264.957031 313.308594 " fill-opacity="1" fill-rule="nonzero"/><path fill="#c2c2c2" d="M 290.746094 110.21875 C 290.746094 167.191406 244.558594 213.375 187.585938 213.375 C 130.613281 213.375 84.429688 167.191406 84.429688 110.21875 C 84.429688 53.246094 130.613281 7.058594 187.585938 7.058594 C 244.558594 7.058594 290.746094 53.246094 290.746094 110.21875 Z M 290.746094 110.21875 " fill-opacity="1" fill-rule="nonzero"/><g clip-path="url(#id3)"><path fill="#212a41" d="M 187.585938 216.601562 C 128.925781 216.601562 81.207031 168.878906 81.207031 110.21875 C 81.207031 51.558594 128.925781 3.835938 187.585938 3.835938 C 246.246094 3.835938 293.96875 51.558594 293.96875 110.21875 C 293.96875 168.878906 246.246094 216.601562 187.585938 216.601562 Z M 187.585938 10.285156 C 132.480469 10.285156 87.652344 55.113281 87.652344 110.21875 C 87.652344 165.324219 132.480469 210.152344 187.585938 210.152344 C 242.691406 210.152344 287.519531 165.324219 287.519531 110.21875 C 287.519531 55.113281 242.691406 10.285156 187.585938 10.285156 Z M 187.585938 10.285156 " fill-opacity="1" fill-rule="nonzero"/></g><path fill="#e0e0e0" d="M 310.085938 110.21875 C 310.085938 167.191406 263.902344 213.375 206.929688 213.375 C 149.957031 213.375 103.769531 167.191406 103.769531 110.21875 C 103.769531 53.246094 149.957031 7.058594 206.929688 7.058594 C 263.902344 7.058594 310.085938 53.246094 310.085938 110.21875 Z M 310.085938 110.21875 " fill-opacity="1" fill-rule="nonzero"/><g clip-path="url(#id4)"><path fill="#212a41" d="M 206.929688 216.601562 C 148.269531 216.601562 100.546875 168.878906 100.546875 110.21875 C 100.546875 51.558594 148.269531 3.835938 206.929688 3.835938 C 265.589844 3.835938 313.308594 51.558594 313.308594 110.21875 C 313.308594 168.878906 265.589844 216.601562 206.929688 216.601562 Z M 206.929688 10.285156 C 151.824219 10.285156 106.996094 55.113281 106.996094 110.21875 C 106.996094 165.324219 151.824219 210.152344 206.929688 210.152344 C 262.035156 210.152344 306.863281 165.324219 306.863281 110.21875 C 306.863281 55.113281 262.035156 10.285156 206.929688 10.285156 Z M 206.929688 10.285156 " fill-opacity="1" fill-rule="nonzero"/></g><path fill="#0079a8" d="M 284.296875 110.21875 C 284.296875 152.949219 249.660156 187.585938 206.929688 187.585938 C 164.199219 187.585938 129.558594 152.949219 129.558594 110.21875 C 129.558594 67.488281 164.199219 32.851562 206.929688 32.851562 C 249.660156 32.851562 284.296875 67.488281 284.296875 110.21875 Z M 284.296875 110.21875 " fill-opacity="1" fill-rule="nonzero"/><path fill="#212a41" d="M 206.929688 190.808594 C 162.484375 190.808594 126.335938 154.660156 126.335938 110.21875 C 126.335938 65.773438 162.484375 29.625 206.929688 29.625 C 251.371094 29.625 287.519531 65.773438 287.519531 110.21875 C 287.519531 154.660156 251.371094 190.808594 206.929688 190.808594 Z M 206.929688 36.074219 C 166.046875 36.074219 132.785156 69.335938 132.785156 110.21875 C 132.785156 151.101562 166.046875 184.363281 206.929688 184.363281 C 247.8125 184.363281 281.074219 151.101562 281.074219 110.21875 C 281.074219 69.335938 247.8125 36.074219 206.929688 36.074219 Z M 206.929688 36.074219 " fill-opacity="1" fill-rule="nonzero"/><path fill="#1e97c6" d="M 142.457031 113.441406 C 140.675781 113.441406 139.230469 112 139.230469 110.21875 C 139.230469 72.890625 169.601562 42.519531 206.929688 42.519531 C 208.707031 42.519531 210.152344 43.964844 210.152344 45.746094 C 210.152344 47.523438 208.707031 48.96875 206.929688 48.96875 C 173.15625 48.96875 145.679688 76.445312 145.679688 110.21875 C 145.679688 112 144.234375 113.441406 142.457031 113.441406 Z M 142.457031 113.441406 " fill-opacity="1" fill-rule="nonzero"/><path fill="#005b8a" d="M 206.929688 177.914062 C 205.148438 177.914062 203.707031 176.472656 203.707031 174.691406 C 203.707031 172.914062 205.148438 171.46875 206.929688 171.46875 C 240.703125 171.46875 268.179688 143.992188 268.179688 110.21875 C 268.179688 108.4375 269.621094 106.996094 271.402344 106.996094 C 273.183594 106.996094 274.625 108.4375 274.625 110.21875 C 274.625 147.546875 244.257812 177.914062 206.929688 177.914062 Z M 206.929688 177.914062 " fill-opacity="1" fill-rule="nonzero"/><path fill="#c2c2c2" d="M 213.375 264.957031 C 213.375 321.929688 167.191406 368.113281 110.21875 368.113281 C 53.246094 368.113281 7.058594 321.929688 7.058594 264.957031 C 7.058594 207.984375 53.246094 161.796875 110.21875 161.796875 C 167.191406 161.796875 213.375 207.984375 213.375 264.957031 Z M 213.375 264.957031 " fill-opacity="1" fill-rule="nonzero"/><g clip-path="url(#id5)"><path fill="#212a41" d="M 110.21875 371.335938 C 51.558594 371.335938 3.835938 323.617188 3.835938 264.957031 C 3.835938 206.296875 51.558594 158.574219 110.21875 158.574219 C 168.878906 158.574219 216.601562 206.296875 216.601562 264.957031 C 216.601562 323.617188 168.878906 371.335938 110.21875 371.335938 Z M 110.21875 165.019531 C 55.113281 165.019531 10.285156 209.851562 10.285156 264.957031 C 10.285156 320.058594 55.113281 364.890625 110.21875 364.890625 C 165.324219 364.890625 210.152344 320.058594 210.152344 264.957031 C 210.152344 209.851562 165.324219 165.019531 110.21875 165.019531 Z M 110.21875 165.019531 " fill-opacity="1" fill-rule="nonzero"/></g><path fill="#e0e0e0" d="M 232.71875 264.957031 C 232.71875 321.929688 186.53125 368.113281 129.558594 368.113281 C 72.585938 368.113281 26.402344 321.929688 26.402344 264.957031 C 26.402344 207.984375 72.585938 161.796875 129.558594 161.796875 C 186.53125 161.796875 232.71875 207.984375 232.71875 264.957031 Z M 232.71875 264.957031 " fill-opacity="1" fill-rule="nonzero"/><g clip-path="url(#id6)"><path fill="#212a41" d="M 129.558594 371.335938 C 70.898438 371.335938 23.179688 323.617188 23.179688 264.957031 C 23.179688 206.296875 70.898438 158.574219 129.558594 158.574219 C 188.21875 158.574219 235.941406 206.296875 235.941406 264.957031 C 235.941406 323.617188 188.21875 371.335938 129.558594 371.335938 Z M 129.558594 165.019531 C 74.457031 165.019531 29.625 209.851562 29.625 264.957031 C 29.625 320.058594 74.457031 364.890625 129.558594 364.890625 C 184.664062 364.890625 229.496094 320.058594 229.496094 264.957031 C 229.496094 209.851562 184.664062 165.019531 129.558594 165.019531 Z M 129.558594 165.019531 " fill-opacity="1" fill-rule="nonzero"/></g><path fill="#f9ac2f" d="M 206.929688 264.957031 C 206.929688 307.6875 172.292969 342.324219 129.558594 342.324219 C 86.828125 342.324219 52.191406 307.6875 52.191406 264.957031 C 52.191406 222.222656 86.828125 187.585938 129.558594 187.585938 C 172.292969 187.585938 206.929688 222.222656 206.929688 264.957031 Z M 206.929688 264.957031 " fill-opacity="1" fill-rule="nonzero"/><path fill="#212a41" d="M 129.558594 345.546875 C 85.117188 345.546875 48.96875 309.398438 48.96875 264.957031 C 48.96875 220.511719 85.117188 184.363281 129.558594 184.363281 C 174.003906 184.363281 210.152344 220.511719 210.152344 264.957031 C 210.152344 309.398438 174.003906 345.546875 129.558594 345.546875 Z M 129.558594 190.808594 C 88.675781 190.808594 55.414062 224.070312 55.414062 264.957031 C 55.414062 305.839844 88.675781 339.101562 129.558594 339.101562 C 170.445312 339.101562 203.707031 305.839844 203.707031 264.957031 C 203.707031 224.070312 170.445312 190.808594 129.558594 190.808594 Z M 129.558594 190.808594 " fill-opacity="1" fill-rule="nonzero"/><path fill="#ffca4d" d="M 65.085938 268.179688 C 63.308594 268.179688 61.863281 266.734375 61.863281 264.957031 C 61.863281 227.625 92.230469 197.257812 129.558594 197.257812 C 131.339844 197.257812 132.785156 198.703125 132.785156 200.480469 C 132.785156 202.261719 131.339844 203.707031 129.558594 203.707031 C 95.789062 203.707031 68.308594 231.183594 68.308594 264.957031 C 68.308594 266.734375 66.867188 268.179688 65.085938 268.179688 Z M 65.085938 268.179688 " fill-opacity="1" fill-rule="nonzero"/><path fill="#db8e11" d="M 129.558594 332.652344 C 127.78125 332.652344 126.335938 331.207031 126.335938 329.429688 C 126.335938 327.648438 127.78125 326.207031 129.558594 326.207031 C 163.332031 326.207031 190.808594 298.726562 190.808594 264.957031 C 190.808594 263.175781 192.253906 261.730469 194.035156 261.730469 C 195.8125 261.730469 197.257812 263.175781 197.257812 264.957031 C 197.257812 302.285156 166.890625 332.652344 129.558594 332.652344 Z M 129.558594 332.652344 " fill-opacity="1" fill-rule="nonzero"/><path fill="#212a41" d="M 136.007812 268.179688 L 113.441406 268.179688 C 111.664062 268.179688 110.21875 266.734375 110.21875 264.957031 L 110.21875 239.164062 C 110.21875 237.386719 111.664062 235.941406 113.441406 235.941406 L 136.007812 235.941406 C 144.898438 235.941406 152.125 243.171875 152.125 252.058594 C 152.125 260.949219 144.898438 268.179688 136.007812 268.179688 Z M 116.664062 261.730469 L 136.007812 261.730469 C 141.339844 261.730469 145.679688 257.390625 145.679688 252.058594 C 145.679688 246.730469 141.339844 242.390625 136.007812 242.390625 L 116.664062 242.390625 Z M 116.664062 261.730469 " fill-opacity="1" fill-rule="nonzero"/><path fill="#212a41" d="M 142.457031 293.96875 L 113.441406 293.96875 C 111.664062 293.96875 110.21875 292.523438 110.21875 290.746094 L 110.21875 264.957031 C 110.21875 263.175781 111.664062 261.730469 113.441406 261.730469 L 142.457031 261.730469 C 151.34375 261.730469 158.574219 268.960938 158.574219 277.851562 C 158.574219 286.742188 151.34375 293.96875 142.457031 293.96875 Z M 116.664062 287.519531 L 142.457031 287.519531 C 147.785156 287.519531 152.125 283.179688 152.125 277.851562 C 152.125 272.519531 147.785156 268.179688 142.457031 268.179688 L 116.664062 268.179688 Z M 116.664062 287.519531 " fill-opacity="1" fill-rule="nonzero"/><path fill="#212a41" d="M 113.441406 242.390625 L 103.769531 242.390625 C 101.992188 242.390625 100.546875 240.945312 100.546875 239.164062 C 100.546875 237.386719 101.992188 235.941406 103.769531 235.941406 L 113.441406 235.941406 C 115.222656 235.941406 116.664062 237.386719 116.664062 239.164062 C 116.664062 240.945312 115.222656 242.390625 113.441406 242.390625 Z M 113.441406 242.390625 " fill-opacity="1" fill-rule="nonzero"/><path fill="#212a41" d="M 113.441406 293.96875 L 103.769531 293.96875 C 101.992188 293.96875 100.546875 292.523438 100.546875 290.746094 C 100.546875 288.964844 101.992188 287.519531 103.769531 287.519531 L 113.441406 287.519531 C 115.222656 287.519531 116.664062 288.964844 116.664062 290.746094 C 116.664062 292.523438 115.222656 293.96875 113.441406 293.96875 Z M 113.441406 293.96875 " fill-opacity="1" fill-rule="nonzero"/><path fill="#212a41" d="M 123.113281 242.390625 C 121.332031 242.390625 119.890625 240.945312 119.890625 239.164062 L 119.890625 226.269531 C 119.890625 224.492188 121.332031 223.046875 123.113281 223.046875 C 124.894531 223.046875 126.335938 224.492188 126.335938 226.269531 L 126.335938 239.164062 C 126.335938 240.945312 124.894531 242.390625 123.113281 242.390625 Z M 123.113281 242.390625 " fill-opacity="1" fill-rule="nonzero"/><path fill="#212a41" d="M 136.007812 242.390625 C 134.226562 242.390625 132.785156 240.945312 132.785156 239.164062 L 132.785156 226.269531 C 132.785156 224.492188 134.226562 223.046875 136.007812 223.046875 C 137.789062 223.046875 139.230469 224.492188 139.230469 226.269531 L 139.230469 239.164062 C 139.230469 240.945312 137.789062 242.390625 136.007812 242.390625 Z M 136.007812 242.390625 " fill-opacity="1" fill-rule="nonzero"/><path fill="#212a41" d="M 123.113281 306.863281 C 121.332031 306.863281 119.890625 305.417969 119.890625 303.640625 L 119.890625 290.746094 C 119.890625 288.964844 121.332031 287.519531 123.113281 287.519531 C 124.894531 287.519531 126.335938 288.964844 126.335938 290.746094 L 126.335938 303.640625 C 126.335938 305.417969 124.894531 306.863281 123.113281 306.863281 Z M 123.113281 306.863281 " fill-opacity="1" fill-rule="nonzero"/><path fill="#212a41" d="M 136.007812 306.863281 C 134.226562 306.863281 132.785156 305.417969 132.785156 303.640625 L 132.785156 290.746094 C 132.785156 288.964844 134.226562 287.519531 136.007812 287.519531 C 137.789062 287.519531 139.230469 288.964844 139.230469 290.746094 L 139.230469 303.640625 C 139.230469 305.417969 137.789062 306.863281 136.007812 306.863281 Z M 136.007812 306.863281 " fill-opacity="1" fill-rule="nonzero"/><path fill="#212a41" d="M 223.597656 132.785156 L 174.859375 132.785156 C 173.082031 132.785156 171.636719 131.339844 171.636719 129.558594 C 171.636719 127.78125 173.082031 126.335938 174.859375 126.335938 L 223.597656 126.335938 C 227.761719 126.335938 231.453125 123.679688 232.769531 119.730469 L 237.070312 106.835938 C 238.0625 103.847656 237.578125 100.667969 235.742188 98.117188 C 233.90625 95.566406 231.042969 94.101562 227.894531 94.101562 L 187.753906 94.101562 C 185.976562 94.101562 184.53125 92.65625 184.53125 90.875 C 184.53125 89.097656 185.976562 87.652344 187.753906 87.652344 L 227.894531 87.652344 C 233.136719 87.652344 237.90625 90.089844 240.96875 94.34375 C 244.039062 98.59375 244.84375 103.886719 243.1875 108.871094 L 238.890625 121.765625 C 236.683594 128.355469 230.539062 132.785156 223.597656 132.785156 Z M 223.597656 132.785156 " fill-opacity="1" fill-rule="nonzero"/><path fill="#212a41" d="M 192.398438 113.441406 L 173.054688 113.441406 C 171.273438 113.441406 169.832031 112 169.832031 110.21875 C 169.832031 108.4375 171.273438 106.996094 173.054688 106.996094 L 192.398438 106.996094 C 194.175781 106.996094 195.621094 108.4375 195.621094 110.21875 C 195.621094 112 194.175781 113.441406 192.398438 113.441406 Z M 192.398438 113.441406 " fill-opacity="1" fill-rule="nonzero"/></svg>